<mxfile host="app.diagrams.net" modified="2023-10-09T11:55:52.587Z" agent="Mozilla/5.0 (Macintosh; Intel Mac OS X 10_15_7) AppleWebKit/537.36 (KHTML, like Gecko) Chrome/116.0.0.0 Safari/537.36" version="21.8.2" etag="lyu3srkVC0yeRFcb6IW3" type="github">
  <diagram name="第 1 页" id="-iHkDyiSP8ljrDWbIlKv">
    <mxGraphModel>
      <root>
        <mxCell id="0" />
        <mxCell id="1" parent="0" />
      </root>
    </mxGraphModel>
  </diagram>
</mxfile>
